<svg width="634" height="262" viewBox="0 0 634 262" fill="none" xmlns="http://www.w3.org/2000/svg">
<path d="M72.5989 45.3655C72.3853 45.4046 71.5415 45.5478 70.7238 45.6858C69.9087 45.8239 69.1691 45.9905 69.0832 46.0556C68.9972 46.1207 68.7524 46.2249 68.5363 46.2848C67.6743 46.5296 66.1378 47.1885 65.3696 47.6442C64.9216 47.9072 64.4138 48.1781 64.2393 48.2458C63.6143 48.488 60.8695 50.7302 59.9085 51.7797C58.4553 53.3709 58.0543 53.9412 57.1819 55.6652C54.7391 60.4908 54.2079 65.8139 55.7339 70.1837C56.4293 72.1786 56.5647 72.5015 56.9944 73.1656C57.2131 73.5093 57.5204 74.0354 57.6741 74.3375C59.8486 78.598 64.932 82.1892 70.2551 83.2257C71.4061 83.4496 74.5546 83.6918 75.3333 83.6137C78.6433 83.2908 81.8829 82.4366 82.9116 81.6163C83.0418 81.5147 83.3413 81.3454 83.5809 81.2439C84.4194 80.8871 87.1643 78.6527 88.9013 76.9182C89.8492 75.9703 92.1305 71.9494 92.1305 71.2254C92.1305 71.0509 92.2347 70.6421 92.3597 70.3166C92.9899 68.6941 93.3701 64.6263 93.081 62.6367C92.2685 57.0845 90.4664 53.5324 86.7398 50.1443C85.8361 49.3187 83.672 47.7744 83.422 47.7744C83.3517 47.7744 83.1199 47.652 82.9064 47.501C80.9792 46.1416 75.0859 44.9202 72.5989 45.3655ZM442.294 46.376C440.054 46.9385 438.354 48.2145 437.114 50.2588C436.59 51.1208 436.59 51.1209 436.551 118.927C436.51 186.733 436.51 186.733 437.075 187.764C437.968 189.392 438.89 190.368 440.083 190.947C441.122 191.449 441.122 191.449 451.044 191.491C461.409 191.535 461.331 191.54 463.096 190.874C464.698 190.267 466.479 187.978 466.792 186.124C466.927 185.321 466.997 167.93 467.065 118.781C467.159 52.5193 467.159 52.5193 466.781 51.436C466.078 49.4255 464.638 47.7223 462.851 46.7874C461.903 46.29 461.903 46.29 452.372 46.264C447.13 46.251 442.596 46.3004 442.294 46.376ZM524.795 85.8481C522.436 86.0773 518.319 86.8247 515.345 87.5617C514.483 87.7752 513.498 88.0122 513.155 88.0877C512.626 88.2023 509.576 89.2492 507.373 90.0669C507.029 90.1946 506.292 90.5331 505.732 90.8196C505.175 91.106 503.865 91.7649 502.826 92.2805C500.766 93.304 497.904 95.0566 496.67 96.0488C496.456 96.2207 496.224 96.364 496.157 96.3666C495.662 96.3796 490.529 100.708 488.779 102.585C486.422 105.117 485.677 105.94 484.933 106.838C483.706 108.32 483.193 108.987 482.841 109.562C482.67 109.843 482.209 110.56 481.815 111.151C480.518 113.106 478.003 117.807 477.682 118.87C477.617 119.083 477.469 119.398 477.352 119.568C477.235 119.737 477.138 120.018 477.136 120.193C477.133 120.367 476.886 121.107 476.583 121.838C474.341 127.253 473.287 132.388 473.125 138.693C472.927 146.396 473.609 150.946 476.003 157.855C477.537 162.277 477.177 161.389 478.698 164.496C479.985 167.121 480.141 167.391 482.44 170.902C484.826 174.548 490.164 180.241 492.813 181.962C493.172 182.194 493.894 182.738 494.415 183.168C494.935 183.597 495.662 184.16 496.027 184.418C496.394 184.676 496.881 185.032 497.113 185.209C497.896 185.814 500.678 187.46 501.292 187.681C501.628 187.803 502.818 188.355 503.936 188.907C505.053 189.46 506.529 190.142 507.217 190.426C507.904 190.707 508.608 191.012 508.779 191.103C508.949 191.191 509.3 191.319 509.561 191.387C509.819 191.454 510.628 191.728 511.358 191.993C514.011 192.957 516.798 193.673 518.702 193.882C519.519 193.973 520.433 194.105 520.733 194.181C524.027 195.001 533.092 195.124 537.999 194.418C538.858 194.296 540.434 194.085 541.499 193.949C542.567 193.814 543.762 193.608 544.155 193.491C544.551 193.374 545.332 193.158 545.89 193.007C550.916 191.673 555.957 189.611 561.749 186.527C562.637 186.056 565.359 184.329 566.202 183.704C566.419 183.543 567.085 183.077 567.684 182.665C570.02 181.066 574.148 177.162 577.054 173.803C581.669 168.472 582.747 166.009 581.552 163.55C580.643 161.683 579.804 161.285 575.812 160.816C573.367 160.532 570.554 160.071 560.58 158.324C557.46 157.779 556.416 157.701 555.218 157.928C553.931 158.17 552.447 159.105 551.767 160.105C549.356 163.641 543.257 167.467 538.546 168.397C538.074 168.49 536.949 168.714 536.046 168.894C533.777 169.347 528.314 169.475 526.574 169.115C525.92 168.98 525.191 168.871 524.954 168.871C524.103 168.871 519.293 167.222 517.806 166.42C514.613 164.699 509.985 160.719 509.014 158.86C508.855 158.553 508.613 158.212 508.477 158.1C508.342 157.988 508.233 157.784 508.233 157.652C508.233 157.516 508.1 157.261 507.936 157.084C506.868 155.925 504.904 150.657 505.368 150.196C505.571 149.993 510.399 149.964 544.858 149.964C580.877 149.964 584.179 149.943 584.885 149.706C586.508 149.167 588.039 147.704 588.489 146.271C589.005 144.62 588.729 135.235 588.07 132.073C587.242 128.109 586.974 127.068 585.909 123.713C584.966 120.737 583.992 118.552 582.119 115.198C581.591 114.252 580.862 112.94 580.5 112.284C579.69 110.81 578.08 108.474 577.138 107.406C576.75 106.963 576.195 106.27 575.901 105.862C575.609 105.453 575.307 105.119 575.234 105.119C575.158 105.119 574.953 104.875 574.778 104.575C574.088 103.406 567.51 97.4838 565.812 96.502C565.382 96.2546 564.609 95.7415 564.093 95.3639C563.137 94.6634 558.642 91.9941 558.418 91.9941C558.351 91.9941 557.596 91.6503 556.739 91.231C555.882 90.8118 554.726 90.3248 554.168 90.1503C553.611 89.9758 552.593 89.6086 551.905 89.3352C551.218 89.0591 550.34 88.7414 549.952 88.6294C549.567 88.5148 549.038 88.3482 548.78 88.2596C547.908 87.9627 544.725 87.1685 543.137 86.8533C541.616 86.5513 541.027 86.4653 537.218 85.9705C535.65 85.7674 526.545 85.6762 524.795 85.8481ZM534.249 112.086C534.85 112.208 535.871 112.445 536.514 112.609C537.16 112.773 538.113 113.015 538.637 113.146C539.158 113.278 539.79 113.487 540.043 113.612C540.293 113.737 540.991 114.067 541.593 114.349C545.462 116.153 549.806 119.784 551.606 122.719C551.77 122.989 552.197 123.633 552.551 124.151C553.384 125.359 554.671 128.214 554.551 128.589C554.465 128.859 553.509 128.87 530.059 128.831C505.654 128.792 505.654 128.792 505.673 128.211C505.699 127.344 507.496 123.794 508.764 122.104C511.871 117.963 517.553 113.877 521.202 113.164C521.504 113.104 522.136 112.927 522.608 112.771C525.527 111.804 531.262 111.466 534.249 112.086ZM254.816 88.244C248.589 88.7648 242.897 90.0097 239.087 91.679C238.743 91.83 237.969 92.1477 237.368 92.3847C233.008 94.1009 226.615 98.0723 223.597 100.94C220.357 104.013 219.008 105.359 218.607 105.914C218.354 106.26 217.865 106.841 217.518 107.2C216.94 107.799 215.873 109.153 215.216 110.119C212.961 113.435 211.677 115.594 210.518 118.01C209.589 119.95 207.62 124.995 207.362 126.089C207.237 126.63 206.883 128.125 206.578 129.411C204.966 136.198 205.039 145.967 206.75 152.23C206.867 152.659 207.039 153.438 207.128 153.959C207.276 154.81 207.703 156.24 208.06 157.074C208.133 157.245 208.422 158.019 208.703 158.792C209.297 160.433 211.06 164.115 211.969 165.621C212.318 166.196 212.602 166.717 212.602 166.777C212.602 167.04 215.128 170.777 215.654 171.29C215.742 171.378 216.076 171.834 216.391 172.308C217.677 174.222 220.453 177.155 223.881 180.222C225.076 181.293 229.855 184.454 232.625 186.009C234.227 186.907 234.672 187.116 236.04 187.585C237.175 187.975 238.425 188.434 238.93 188.642C239.764 188.986 243.115 190.087 244.321 190.415C250.98 192.223 260.587 192.392 266.431 190.803C267.204 190.592 268.118 190.358 268.462 190.283C269.103 190.139 272.473 188.96 274.712 188.098C276.231 187.512 277.585 186.866 277.955 186.553C278.106 186.426 278.358 186.243 278.514 186.15C279.686 185.454 283.736 182.467 283.926 182.163C284.069 181.931 284.585 181.954 284.679 182.199C284.973 182.967 283.137 189.249 282.074 191.108C281.869 191.467 281.619 192.017 281.52 192.329C281.423 192.639 281.098 193.238 280.801 193.655C280.504 194.074 280.259 194.465 280.259 194.522C280.259 195.043 277.999 197.869 275.629 200.311C273.892 202.103 270.233 204.65 268.707 205.129C268.486 205.199 267.78 205.478 267.134 205.749C259.392 209.007 252.326 208.944 244.165 205.546C241.068 204.257 239.436 203.082 236.185 199.806C234.545 198.155 234.282 197.832 232.761 195.603C231.334 193.512 230.125 192.996 226.985 193.142C225.821 193.197 224.341 193.342 223.696 193.465C223.052 193.587 221.961 193.736 221.274 193.793C219.698 193.926 216.956 194.387 214.633 194.913C213.646 195.134 212.414 195.405 211.899 195.509C208.854 196.137 206.904 198.46 207.203 201.1C207.49 203.629 209.815 208.025 213.49 212.981C215.922 216.262 220.784 220.932 223.451 222.544C223.735 222.715 224.276 223.075 224.651 223.34C226.813 224.874 232.112 227.609 234.633 228.492C235.451 228.775 236.717 229.223 237.446 229.484C238.738 229.945 242.269 230.867 244.009 231.197C251.022 232.526 258.183 232.669 264.712 231.611C265.486 231.486 266.436 231.341 266.821 231.289C268.535 231.057 271.131 230.361 273.931 229.387C275.048 228.999 276.35 228.554 276.822 228.398C278.525 227.838 282.184 226.221 283.697 225.359C283.913 225.236 284.369 224.984 284.712 224.796C285.056 224.609 285.952 224.044 286.705 223.538C287.455 223.033 288.127 222.622 288.197 222.622C288.314 222.622 288.929 222.208 289.713 221.601C289.884 221.468 290.249 221.205 290.522 221.015C294.413 218.312 299.312 213.325 303.007 208.306C303.773 207.265 304.666 205.929 304.992 205.337C305.317 204.746 305.864 203.804 306.205 203.246C306.549 202.686 307.077 201.702 307.385 201.059C307.692 200.413 308.176 199.395 308.463 198.793C309.653 196.301 310.012 195.465 310.275 194.574C310.429 194.059 310.898 192.616 311.32 191.371C312.661 187.415 313.276 184.821 313.856 180.668C314.427 176.574 314.677 95.4395 314.122 93.692C313.434 91.5253 312.289 90.2987 310.346 89.6529C308.663 89.093 291.767 89.2466 290.181 89.8352C287.736 90.744 286.728 92.33 286.525 95.5853C286.416 97.3197 286.311 97.4082 285.252 96.6895C284.869 96.4317 284.496 96.2181 284.423 96.2155C284.348 96.2129 284.033 96.015 283.72 95.7728C282.686 94.9733 279.431 93.2389 277.369 92.3899C276.595 92.0722 275.751 91.7206 275.494 91.6086C272.717 90.4055 267.535 89.0878 263.54 88.5669C260.657 88.1919 257.048 88.0591 254.816 88.244ZM262.225 111.606C265.092 112.276 268.35 113.312 269.478 113.914C273.103 115.849 276.106 118.187 278.064 120.601C278.58 121.239 279.093 121.867 279.202 122C279.4 122.239 279.728 122.734 280.754 124.338C281.056 124.81 281.457 125.547 281.647 125.974C281.835 126.401 282.095 126.865 282.223 127.008C282.35 127.148 282.52 127.466 282.598 127.716C282.673 127.964 282.947 128.669 283.205 129.284C284.34 132 284.939 135.401 284.944 139.133C284.947 142.399 284.824 143.378 283.975 146.839C283.179 150.076 281.048 154.136 278.442 157.386C277.353 158.743 274.116 161.805 273.54 162.024C273.387 162.081 273.217 162.199 273.163 162.285C272.725 162.995 268.91 165.006 266.496 165.803C264.038 166.61 263.465 166.746 260.649 167.165C258.157 167.537 254.501 167.279 251.397 166.516C249.584 166.071 248.944 165.86 247.813 165.345C247.542 165.222 247.24 165.121 247.144 165.121C247.048 165.121 246.285 164.766 245.449 164.331C235.271 159.047 229.659 148.211 230.891 136.222C231.816 127.201 237.636 118.479 245.493 114.343C247.886 113.083 251.871 111.846 255.102 111.362C256.441 111.159 260.983 111.315 262.225 111.606ZM368.933 88.27C367.73 88.3273 366.323 88.4497 365.808 88.5435C365.292 88.6346 364.545 88.7102 364.149 88.7128C363.29 88.7128 358.677 89.5617 357.75 89.8873C357.391 90.0149 356.93 90.119 356.727 90.119C356.521 90.119 355.917 90.2623 355.378 90.4367C354.841 90.6112 354.05 90.8664 353.62 91.0019C352.5 91.3586 349.88 92.4993 347.521 93.653C346.401 94.2024 345.435 94.6504 345.373 94.6504C345.31 94.6504 344.919 94.8874 344.505 95.179C344.091 95.4707 343.513 95.8301 343.219 95.9837C342.07 96.5723 339.93 98.0775 337.781 99.8015C336.544 100.794 335.349 101.742 335.125 101.911C334.148 102.645 330.193 106.867 328.825 108.635C326.469 111.682 322.135 119.078 322.135 120.055C322.135 120.187 321.95 120.695 321.721 121.185C320.922 122.906 319.01 128.747 319.01 129.474C319.01 129.607 318.875 130.315 318.708 131.05C317.588 135.974 317.442 143.662 318.372 148.558C318.828 150.946 319.263 152.891 319.562 153.87C319.708 154.342 319.955 155.185 320.114 155.745C320.494 157.076 321.099 158.688 321.57 159.615C321.778 160.024 322.031 160.675 322.135 161.061C322.237 161.446 322.385 161.839 322.463 161.933C322.695 162.219 323.385 163.563 323.385 163.732C323.385 163.972 326.086 168.441 326.867 169.496C327.026 169.709 327.437 170.272 327.778 170.746C331.456 175.837 336.591 180.564 342.526 184.321C344.172 185.363 348.11 187.34 349.401 187.772C350.089 188.004 351.495 188.475 352.526 188.824C353.558 189.173 354.93 189.613 355.573 189.801C356.219 189.991 356.956 190.215 357.214 190.298C359.12 190.923 363.743 191.553 368.154 191.785C373.415 192.061 380.98 190.603 385.886 188.361C386.532 188.066 387.269 187.775 387.527 187.715C389.006 187.361 392.577 185.098 395.707 182.532C396.855 181.592 397.988 180.683 398.228 180.509C398.467 180.337 398.879 179.959 399.147 179.676C400.061 178.696 400.197 179.215 399.746 181.996C399.066 186.191 397.262 191.03 395.465 193.48C395.087 193.996 394.532 194.803 394.235 195.277C393.358 196.665 389.957 200.246 388.527 201.291C387.998 201.673 386.657 202.564 384.686 203.84C384.115 204.21 382.832 204.866 381.837 205.304C374.628 208.455 367.368 208.882 360.183 206.577C358.427 206.015 355.44 204.785 354.836 204.377C354.597 204.215 353.664 203.595 352.761 203.004C350.469 201.496 348.018 199.035 346.466 196.684C344.703 194.007 344.323 193.642 342.971 193.319C341.779 193.035 340.089 193.038 338.151 193.332C337.292 193.462 335.44 193.673 334.034 193.798C332.63 193.923 331.432 194.056 331.375 194.092C331.315 194.129 330.672 194.238 329.943 194.337C329.216 194.434 328.023 194.652 327.291 194.819C326.562 194.988 325.33 195.272 324.557 195.449C320.635 196.356 318.862 199.626 320.565 202.819C320.807 203.27 321.351 204.304 321.778 205.121C322.205 205.936 322.833 207.028 323.174 207.543C323.515 208.059 324 208.796 324.252 209.184C324.685 209.84 326.276 211.952 327.552 213.559C328.409 214.64 329.568 215.848 331.198 217.369C332.015 218.129 333.052 219.106 333.502 219.541C333.956 219.976 334.495 220.442 334.703 220.577C334.911 220.713 335.596 221.218 336.227 221.697C336.854 222.179 337.721 222.773 338.151 223.02C338.581 223.268 339.003 223.549 339.089 223.645C339.227 223.801 341.576 225.226 342.839 225.921C344.357 226.757 346.542 227.775 348.034 228.343C348.571 228.549 349.485 228.9 350.065 229.127C352.456 230.057 353.696 230.481 355.104 230.846C355.922 231.059 357.115 231.369 357.761 231.539C365.334 233.52 379.084 233.278 385.925 231.041C386.42 230.88 386.931 230.747 387.061 230.747C387.444 230.747 391.079 229.497 391.59 229.19C391.847 229.033 392.806 228.653 393.72 228.343C395.074 227.885 397.741 226.697 398.855 226.057C406.04 221.929 411.848 217.028 416.627 211.059C417.606 209.832 419.637 206.918 419.637 206.739C419.637 206.679 419.947 206.134 420.325 205.525C420.937 204.535 421.332 203.83 422.301 201.996C423.364 199.983 424.999 196.012 425.549 194.105C425.723 193.504 426.08 192.309 426.338 191.449C427.444 187.79 428.111 183.975 428.39 179.73C428.588 176.673 428.583 94.8639 428.382 94.1504C427.773 91.9732 426.481 90.4315 424.697 89.7492C423.585 89.3274 423.585 89.3274 413.916 89.3716C402.6 89.4237 403.158 89.3456 401.426 91.1269C400.254 92.3352 400.064 92.8847 399.954 95.429C399.863 97.5567 399.673 97.8978 398.993 97.1661C398.827 96.9864 398.465 96.7259 398.186 96.5879C397.91 96.4473 397.228 96.0358 396.668 95.6712C394.574 94.3066 393.907 93.9134 392.996 93.4889C392.48 93.2493 391.571 92.8144 390.975 92.5227C390.379 92.2311 389.829 91.9941 389.754 91.9941C389.681 91.9941 389.324 91.8665 388.965 91.7102C387.532 91.0878 387.032 90.8977 386.433 90.7545C386.089 90.6737 385.493 90.5019 385.105 90.3769C382.798 89.6242 377.759 88.6659 374.792 88.4159C371.899 88.1711 371.329 88.1555 368.933 88.27ZM376.186 111.672C376.996 111.856 378.397 112.286 379.3 112.625C380.204 112.966 381.014 113.244 381.102 113.244C381.527 113.244 383.985 114.544 385.808 115.732C389.715 118.276 392.629 121.5 395.217 126.135C396.053 127.633 396.209 128.039 397.071 130.979C398.647 136.334 398.532 143.456 396.806 147.894C396.712 148.131 396.538 148.701 396.415 149.159C396.207 149.954 395.702 150.982 394.301 153.48C392.347 156.959 389.079 160.446 385.511 162.86C383.925 163.936 383.29 164.334 383.165 164.337C383.084 164.337 382.905 164.443 382.764 164.574C382.621 164.701 382.123 164.938 381.657 165.102C381.191 165.266 380.282 165.615 379.636 165.876C375.852 167.415 370.774 167.99 366.87 167.318C358.133 165.821 351.867 161.579 347.32 154.086C345.787 151.563 345.427 150.654 344.417 146.761C343.287 142.414 343.258 138.104 344.323 133.011C344.484 132.237 344.664 131.357 344.721 131.057C344.857 130.344 346.203 126.982 346.753 125.979C347.266 125.042 349.169 122.138 349.414 121.917C349.508 121.831 350.094 121.151 350.714 120.403C351.334 119.656 351.899 119.023 351.974 118.997C352.047 118.971 352.552 118.526 353.099 118.013C355.102 116.12 359.735 113.244 360.779 113.244C360.909 113.244 361.745 112.992 362.633 112.685C363.519 112.377 364.422 112.091 364.636 112.049C364.852 112.007 365.696 111.838 366.511 111.674C369.342 111.106 373.709 111.104 376.186 111.672ZM63.3018 88.8586C61.2106 89.3664 59.5934 90.83 58.7939 92.9316C58.4658 93.791 58.4658 93.791 58.3824 144.183C58.2887 202.257 58.5231 195.941 56.3954 198.017C53.9344 200.413 51.1609 201.043 44.3952 200.744C40.5513 200.574 37.882 202.403 37.3195 205.59C37.231 206.093 37.1893 209.601 37.2179 214.054C37.2674 221.656 37.2674 221.656 37.6555 222.413C39.3378 225.679 41.4264 227.166 45.3249 227.867C48.3432 228.408 58.0595 228.546 60.8799 228.085C65.6925 227.304 71.9738 224.624 75.6458 221.788C76.9245 220.804 80.2657 217.741 80.6745 217.184C80.9089 216.866 81.2162 216.499 81.3595 216.372C81.7918 215.984 84.0444 212.947 84.9533 211.528C85.8153 210.184 86.1226 209.614 86.5939 208.481C88.5731 203.71 89.1591 201.668 89.7242 197.543C89.9586 195.837 89.982 191.118 90.0003 145.433C90.0211 93.9238 90.0211 93.8743 89.4768 93.166C89.4091 93.08 89.3049 92.8457 89.245 92.6451C88.8596 91.3951 86.8153 89.6373 85.0366 89.0279C84.146 88.7232 83.7605 88.7128 73.9426 88.7284C68.3488 88.7388 63.5596 88.7961 63.3018 88.8586ZM101.967 89.6945C100.972 90.0331 99.1619 91.0201 99.1619 91.2232C99.1619 91.2779 98.99 91.5097 98.7791 91.7363C98.5681 91.9654 98.2348 92.4837 98.0369 92.8925C97.6775 93.6347 97.6775 93.6347 97.6306 121.292C97.5837 149.959 97.6072 151.383 98.2322 154.73C98.7244 157.365 99.7557 160.662 100.878 163.167C101.068 163.597 101.352 164.3 101.506 164.73C101.974 166.05 103.719 169.524 104.389 170.475C104.738 170.972 105.128 171.571 105.256 171.811C105.946 173.092 109.251 177.238 111.113 179.162C116.761 185.004 123.998 189.329 132.522 191.96C137.866 193.611 140.277 194.001 146.116 194.163C152.478 194.337 157.043 194.02 160.179 193.184C160.952 192.978 162.325 192.618 163.226 192.384C164.986 191.928 168.064 190.905 169.085 190.436C169.429 190.28 170.239 189.902 170.887 189.598C171.533 189.296 172.236 188.967 172.45 188.871C172.661 188.777 173.116 188.532 173.46 188.327C173.804 188.124 174.562 187.707 175.143 187.402C176.156 186.874 176.533 186.618 178.588 185.092C183.398 181.517 187.823 177.303 189.763 174.451C190.336 173.608 191.036 172.589 191.317 172.186C195.297 166.472 198.161 158.644 199.107 150.902C199.427 148.271 199.627 95.9942 199.323 94.442C198.903 92.317 197.638 90.7519 195.635 89.8847C194.554 89.4159 194.554 89.4159 183.794 89.3716C173.307 89.33 173.01 89.3378 172.184 89.6477C170.247 90.3716 169.507 90.9784 168.77 92.455C167.905 94.1868 167.924 93.5097 167.918 121.526C167.913 149.219 167.939 148.232 167.137 151.058C166.955 151.701 166.702 152.639 166.577 153.136C166.106 155.014 164.653 157.449 162.931 159.235C161.981 160.222 159.877 161.995 159.655 161.995C159.58 161.995 159.317 162.152 159.072 162.344C157.567 163.529 154.728 164.769 152.892 165.045C149.09 165.618 144.264 165.404 142.069 164.571C136.288 162.37 132.342 158.824 130.519 154.18C130.298 153.62 130.009 152.951 129.876 152.696C129.743 152.441 129.634 152.115 129.631 151.977C129.631 151.836 129.53 151.435 129.407 151.086C128.707 149.099 128.676 147.644 128.782 120.901C128.889 93.5045 128.91 94.3691 128.05 92.5384C127.446 91.2545 126.149 90.0956 124.855 89.6867C123.123 89.1398 103.573 89.1477 101.967 89.6945Z" fill="#5455A9"/>
<path d="M247.125 57C289.729 12.8333 332.333 12.8333 374.938 57" stroke="#DF6835" stroke-width="6" stroke-linecap="round"/>
<path d="M247.125 72.625C255.754 72.625 262.75 65.6294 262.75 57C262.75 48.3706 255.754 41.375 247.125 41.375C238.496 41.375 231.5 48.3706 231.5 57C231.5 65.6294 238.496 72.625 247.125 72.625Z" fill="#DF6835"/>
<path d="M374.938 72.625C383.567 72.625 390.562 65.6294 390.562 57C390.562 48.3706 383.567 41.375 374.938 41.375C366.308 41.375 359.312 48.3706 359.312 57C359.312 65.6294 366.308 72.625 374.938 72.625Z" fill="#DF6835"/>
</svg>
